<?xml version="1.0" encoding="UTF-8" standalone="no"?><!DOCTYPE svg PUBLIC "-//W3C//DTD SVG 1.1//EN" "http://www.w3.org/Graphics/SVG/1.1/DTD/svg11.dtd"><svg width="100%" height="100%" viewBox="0 0 71 46" version="1.1" xmlns="http://www.w3.org/2000/svg" xmlns:xlink="http://www.w3.org/1999/xlink" xml:space="preserve" xmlns:serif="http://www.serif.com/" style="fill-rule:evenodd;clip-rule:evenodd;stroke-linejoin:round;stroke-miterlimit:2;"><g><path d="M57.212,27.025l0,-0.621l0.163,0l0,0.459l0.325,-0l-0,0.162l-0.488,0Zm-0.587,-0.367l-0.033,0.125l0.075,0l-0.042,-0.125Zm0.121,0.367l-0.033,-0.092l-0.18,0l-0.029,0.092l-0.179,0l0.217,-0.621l0.162,0l0.221,0.621l-0.179,0Zm-0.896,0l-0.179,-0.296l-0,0.296l-0.188,0l0,-0.621l0.18,0l0.187,0.3l0,-0.3l0.171,0l-0,0.621l-0.171,0Zm-0.967,-0.475c-0.016,0 -0.041,0.008 -0.05,0.017c-0.016,0.016 -0.041,0.021 -0.062,0.033c-0,0.017 -0.009,0.033 -0.025,0.05l-0,0.125c0.016,0.017 0.025,0.029 0.025,0.046c0.021,0.021 0.046,0.033 0.062,0.033c0.009,0.009 0.034,0.013 0.05,0.013c0.025,-0 0.05,-0.004 0.067,-0.013c0.004,0 0.029,-0.012 0.037,-0.033c0.017,-0.017 0.026,-0.029 0.034,-0.046c-0,-0.033 0.008,-0.033 0.008,-0.054c0,-0.025 -0.008,-0.054 -0.008,-0.071c-0.008,-0.017 -0.017,-0.033 -0.034,-0.05c-0.008,-0.012 -0.033,-0.017 -0.037,-0.033c-0.017,-0.009 -0.042,-0.017 -0.067,-0.017Zm0,0.492c-0.05,-0 -0.083,-0.017 -0.121,-0.034c-0.041,-0.016 -0.083,-0.041 -0.116,-0.066c-0.025,-0.038 -0.046,-0.067 -0.063,-0.088c-0.016,-0.054 -0.025,-0.096 -0.025,-0.133c0,-0.063 0.009,-0.096 0.025,-0.133c0.017,-0.038 0.038,-0.08 0.063,-0.101c0.033,-0.025 0.075,-0.058 0.116,-0.079c0.038,-0.012 0.071,-0.02 0.121,-0.02c0.05,-0 0.088,0.008 0.13,0.02c0.041,0.021 0.074,0.046 0.108,0.079c0.021,0.021 0.046,0.063 0.071,0.101c0.016,0.037 0.016,0.07 0.016,0.133c0,0.037 0,0.079 -0.016,0.133c-0.025,0.021 -0.05,0.05 -0.071,0.088c-0.034,0.025 -0.067,0.05 -0.108,0.066c-0.042,0.017 -0.08,0.034 -0.13,0.034Zm-0.829,-0.017l0,-0.621l0.188,0l-0,0.621l-0.188,0Zm-0.333,-0.458l-0.154,-0l-0,0.458l-0.175,0l-0,-0.458l-0.163,-0l-0.012,-0.017l-0,-0.146l0.525,0l-0,0.146l-0.021,0.017Zm-0.979,0.091l-0.034,0.125l0.067,0l-0.033,-0.125Zm0.116,0.367l-0.025,-0.092l-0.179,0l-0.033,0.092l-0.188,0l0.238,-0.621l0.137,0l0.238,0.621l-0.188,0Zm-0.887,0l-0.196,-0.296l-0,0.296l-0.162,0l-0,-0.621l0.162,0l0.187,0.3l0,-0.3l0.163,0l0,0.621l-0.154,0Zm-0.929,-0.475l-0.096,0l-0,0.108l0.096,0c0.016,0 0.025,-0.008 0.033,-0.008c0.017,-0.008 0.025,-0.025 0.025,-0.042c-0,-0.02 -0.008,-0.025 -0.025,-0.041c-0.008,-0.017 -0.017,-0.017 -0.033,-0.017Zm0.112,0.475l-0.096,-0.188l-0.112,0l-0,0.188l-0.171,0l-0,-0.621l0.317,0c0.016,0 0.033,0 0.041,0.004c0.021,0 0.038,0.017 0.046,0.021c0.017,0.008 0.025,0.017 0.034,0.033c0.024,0.005 0.024,0.009 0.041,0.025c0.009,0.017 0.017,0.03 0.017,0.055l-0,0.05c-0,0.029 -0,0.058 -0.008,0.083c-0.009,0.029 -0.042,0.054 -0.059,0.067l0.146,0.283l-0.196,0Zm-1.179,0l0,-0.621l0.488,0l-0,0.154l-0.326,0l0,0.075l0.305,0l-0,0.159l-0.305,-0l0,0.071l0.326,-0l-0,0.162l-0.488,0Zm-0.317,-0.458l-0.154,-0l0,0.458l-0.171,0l0,-0.458l-0.154,-0l-0.017,-0.017l0,-0.146l0.513,0l-0,0.146l-0.017,0.017Zm-0.937,0.458l-0.179,-0.296l-0,0.296l-0.171,0l-0,-0.621l0.171,0l0.179,0.3l-0,-0.3l0.179,0l0,0.621l-0.179,0Zm-0.863,0l0,-0.621l0.18,0l-0,0.621l-0.18,0Z" style="fill:#141515;fill-rule:nonzero;"/><path d="M46.654,27.942l-0.25,0.766l0.496,0l-0.246,-0.766Zm0.358,1.741l-0.933,0l-0.196,0.538l-1.166,-0l1.45,-3.967l0.97,0l0.496,1.358l-0.621,2.071Zm-3.562,0.538l0,-0.079c-0.287,0.133 -0.588,0.2 -0.896,0.2c-0.3,-0 -0.571,-0.05 -0.821,-0.159c-0.254,-0.108 -0.475,-0.258 -0.662,-0.445c-0.188,-0.188 -0.333,-0.409 -0.438,-0.667c-0.095,-0.259 -0.145,-0.529 -0.145,-0.821c-0,-0.292 0.05,-0.571 0.154,-0.817c0.104,-0.25 0.25,-0.475 0.437,-0.666c0.188,-0.2 0.417,-0.342 0.671,-0.463c0.25,-0.117 0.512,-0.175 0.804,-0.175c0.317,0 0.609,0.079 0.904,0.213c0.275,0.137 0.53,0.337 0.755,0.6l-0.926,0.625c-0.212,-0.234 -0.466,-0.342 -0.724,-0.342c-0.138,-0 -0.263,0.029 -0.392,0.083c-0.121,0.059 -0.221,0.138 -0.3,0.225c-0.092,0.096 -0.163,0.205 -0.213,0.338c-0.041,0.112 -0.075,0.25 -0.075,0.379c0,0.138 0.034,0.262 0.075,0.392c0.05,0.12 0.121,0.233 0.213,0.325c0.079,0.095 0.179,0.171 0.3,0.216c0.129,0.063 0.254,0.096 0.392,0.096c0.129,0 0.258,-0.033 0.383,-0.096c0.129,-0.045 0.217,-0.121 0.317,-0.22l-0.63,-0l0,-1.021l1.8,-0l0,2.279l-0.983,-0Zm-5.333,-2.992c-0.138,0 -0.271,0.034 -0.384,0.079c-0.12,0.067 -0.22,0.138 -0.308,0.225c-0.092,0.096 -0.158,0.205 -0.204,0.321c-0.05,0.113 -0.075,0.25 -0.075,0.392c-0,0.129 0.025,0.258 0.075,0.383c0.046,0.121 0.112,0.225 0.204,0.317c0.088,0.112 0.188,0.179 0.308,0.225c0.113,0.05 0.246,0.083 0.384,0.083c0.141,0 0.262,-0.033 0.375,-0.083c0.125,-0.046 0.221,-0.113 0.308,-0.225c0.092,-0.092 0.158,-0.196 0.204,-0.317c0.05,-0.125 0.075,-0.254 0.075,-0.383c0,-0.142 -0.025,-0.279 -0.075,-0.392c-0.046,-0.116 -0.112,-0.225 -0.204,-0.321c-0.087,-0.087 -0.183,-0.158 -0.308,-0.225c-0.113,-0.045 -0.234,-0.079 -0.375,-0.079Zm-0.009,3.113c-0.283,-0 -0.562,-0.05 -0.825,-0.159c-0.25,-0.116 -0.47,-0.266 -0.666,-0.454c-0.188,-0.196 -0.342,-0.416 -0.446,-0.667c-0.117,-0.25 -0.171,-0.529 -0.171,-0.812c0,-0.3 0.054,-0.571 0.171,-0.821c0.104,-0.254 0.258,-0.479 0.446,-0.671c0.196,-0.191 0.416,-0.333 0.666,-0.445c0.263,-0.117 0.542,-0.167 0.825,-0.167c0.296,-0 0.563,0.05 0.817,0.167c0.258,0.112 0.487,0.254 0.667,0.445c0.195,0.184 0.35,0.409 0.454,0.667c0.108,0.254 0.162,0.525 0.162,0.825c0,0.283 -0.054,0.562 -0.162,0.812c-0.104,0.251 -0.259,0.471 -0.454,0.667c-0.18,0.188 -0.409,0.338 -0.667,0.454c-0.254,0.109 -0.521,0.159 -0.817,0.159Zm-3.208,-1.488l0,1.367l-1.138,-0l0,-1.367l-1.3,-2.6l1.28,0l0.591,1.254l0.588,-1.254l1.279,0l-1.3,2.6Z" style="fill:#141515;"/><path d="M56.325,29.967l-0,1.375l-1.142,-0l0,-1.375l-1.3,-2.592l1.275,0l0.596,1.246l0.592,-1.246l1.279,0l-1.3,2.592Zm-4.004,-0.909l-0.254,0.759l0.495,-0l-0.241,-0.759Zm0.762,2.284l-0.196,-0.542l-1.137,-0l-0.188,0.542l-1.17,-0l1.445,-3.967l0.955,0l1.466,3.967l-1.175,-0Zm-4.595,-2.942l-0.571,-0l-0,1.896l0.571,-0c0.129,-0 0.233,-0.021 0.358,-0.075c0.112,-0.046 0.216,-0.121 0.308,-0.196c0.071,-0.092 0.146,-0.192 0.204,-0.296c0.042,-0.116 0.063,-0.242 0.063,-0.383c-0,-0.125 -0.021,-0.25 -0.063,-0.359c-0.058,-0.124 -0.133,-0.225 -0.204,-0.304c-0.092,-0.087 -0.196,-0.158 -0.308,-0.204c-0.125,-0.046 -0.229,-0.079 -0.358,-0.079Zm0.095,2.942l-1.7,-0l1.205,-3.967l0.495,0c0.28,0 0.529,0.05 0.784,0.15c0.233,0.104 0.437,0.254 0.625,0.425c0.179,0.183 0.325,0.392 0.433,0.642c0.096,0.22 0.146,0.483 0.146,0.762c-0,0.275 -0.05,0.525 -0.146,0.771c-0.108,0.237 -0.254,0.45 -0.433,0.629c-0.188,0.175 -0.392,0.321 -0.625,0.429c-0.255,0.1 -0.504,0.159 -0.784,0.159Z" style="fill:#141515;"/><path d="M23.933,16.008c-0.537,-0.15 -1.104,-0.229 -1.691,-0.229c-0.684,0 -1.338,0.109 -1.95,0.309l0.046,-0.105c-0,0 0.266,-0.437 0.433,-0.7c0.167,-0.266 0.404,-0.975 0.712,-1.829c0.305,-0.854 0.517,-1.421 0.563,-1.525c0.046,-0.108 0.05,-0.233 0.05,-0.233c-0,-0 0.387,0.758 0.437,0.937c0.05,0.175 0.384,1.063 0.455,1.342c0.07,0.279 0.604,1.442 0.687,1.538c0.063,0.07 0.196,0.358 0.258,0.495Zm0.196,0.034c0.004,0.016 0.013,0.029 0.013,0.029c-0,-0 0.25,0.425 0.487,0.754c0.234,0.325 0.521,0.3 0.508,1.146c-0.012,0.854 -0.029,2.971 0.013,3.346c0.038,0.375 0.1,0.787 -0.117,1.012c-0.216,0.225 -0.5,0.638 -0.5,0.638c0,-0 -0.437,0.112 -0.579,0.333l-0.146,0.221c0,-0 -0.1,-0.025 -0.191,-0c-0.092,0.029 -0.088,0.033 -0.088,0.033l-0.2,-0.366c0,-0 0.288,-0.326 0.454,-0.742c0.167,-0.404 0.159,-0.546 0.159,-0.546c-0,0 0.283,-0.062 0.337,-0.554c0.054,-0.492 -0.187,-0.571 -0.187,-0.571c-0,0 0.262,-0.454 0.179,-1.079c-0.079,-0.629 -0.721,-1.258 -2,-1.246c-1.279,0.013 -1.721,1.013 -1.734,1.392c-0.012,0.379 -0.008,0.929 -0.008,0.929c0,-0 -0.158,0.121 -0.154,0.437c0.008,0.313 0.133,0.646 0.2,0.709c0.067,0.075 0.204,0.083 0.204,0.083c0,0 0.05,0.462 0.184,0.7c0.212,0.358 0.854,0.967 1.175,1.038c0.349,0.075 0.674,-0.121 0.783,-0.217c0.112,-0.096 0.171,-0.125 0.162,-0.117c-0.008,0.004 -0.321,0.479 -0.825,0.442c-0.35,-0.025 -0.833,-0.45 -1.087,-0.7c-0.004,0.062 -0.017,0.121 -0.034,0.171c-0.045,0.125 -0.283,0.187 -0.308,0.137c-0.029,-0.054 -0.475,-0.471 -0.675,-0.658c-0.196,-0.188 -0.562,-0.334 -0.708,-0.896c-0.146,-0.558 0.083,-3.117 0.058,-3.504c-0.029,-0.384 -0.021,-1.254 -0.021,-1.254c0,-0 0.375,-0.571 0.646,-1c0.034,-0.054 0.075,-0.117 0.113,-0.18l-0,-0.004c0.096,-0.15 0.2,-0.321 0.283,-0.454c0.196,-0.312 0.479,-1.158 0.842,-2.171c0.362,-1.012 0.62,-1.691 0.675,-1.812c0.05,-0.125 0.054,-0.275 0.054,-0.275c-0,-0 0.462,0.9 0.521,1.108c0.058,0.213 0.454,1.267 0.537,1.6c0.088,0.329 0.721,1.713 0.817,1.821c0.037,0.042 0.096,0.15 0.158,0.267Zm-0.683,-2.342c-0.017,-0.008 -0.1,-0.258 -0,-0.279c0.104,-0.021 0.371,0.825 0.917,1.683c0.541,0.863 0.841,1.208 0.783,1.275c-0.063,0.067 -1.063,-0.596 -1.7,-2.679Zm-3.867,2.721c-0.025,0.012 -0.396,0.366 -0.433,0.242c-0.042,-0.13 0.05,-0.196 0.487,-0.905c0.438,-0.708 0.654,-1.141 1.063,-2c0.404,-0.858 0.558,-1.058 0.537,-0.754c-0.02,0.304 -0.812,2.742 -1.654,3.417Zm-4.825,17.641c0.038,-0.004 0.267,-0.037 0.429,0.038c0.163,0.071 0.271,0.279 0.254,0.283c-0.016,0 -0.216,0.088 -0.216,0.063c-0,-0.021 -0.054,-0.142 -0.2,-0.225c-0.138,-0.079 -0.288,-0.004 -0.267,-0.159Zm0.838,-0.041c-0.005,0.012 -0,0.108 -0.079,0.083c-0.08,-0.021 -0.109,-0.162 -0.021,-0.208c0.079,-0.046 0.254,-0.013 0.358,0.108c0.104,0.117 0.192,0.109 0.225,0.183c0.033,0.08 0.038,0.155 -0.054,0.175c-0.092,0.017 -0.138,0 -0.171,-0.158c-0.033,-0.154 -0.154,-0.233 -0.258,-0.183Zm0.566,-0c0.059,0.008 0.342,-0.042 0.567,0.05c0.225,0.1 0.304,0.35 0.304,0.35c0,-0 0.35,-0.004 0.779,0.237c0.429,0.238 0.492,0.309 0.492,0.309c0,-0 -0.187,0.004 -0.5,-0.063c-0.308,-0.058 -0.65,-0.246 -0.804,-0.341c-0.154,-0.092 -0.354,-0.08 -0.354,-0.08c-0,0 0.054,-0.37 -0.484,-0.462Zm0.467,-0.413c0.025,-0.004 0.579,0.004 1.146,0.063c0.567,0.054 0.816,0.104 0.816,0.104c0,-0 0.009,0.421 0.101,0.604c0.091,0.184 0.379,0.346 0.358,0.354c-0.017,0.004 -0.454,0.179 -0.871,-0.158c-0.417,-0.333 -0.833,-0.342 -1.025,-0.354c-0.192,-0.013 -0.554,-0.396 -0.525,-0.613Zm6.358,1.917c0.025,0 0.659,-0.108 0.984,-0.475c0.329,-0.375 0.646,-0.588 0.996,-0.6c0.349,-0.012 0.354,0.25 0.937,0.192c0.587,-0.063 0.829,-0.167 1.354,-0.213c0.521,-0.046 0.588,0.225 0.875,0.192c0.296,-0.029 0.333,-0.096 0.754,-0.083c0.417,0.012 0.521,0.258 0.504,0.258c-0.012,-0.004 -1.591,-0.013 -2.55,0.037c-0.962,0.046 -1.12,0.204 -1.558,0.113c-0.442,-0.088 -0.833,0.108 -1.158,0.333c-0.329,0.229 -0.625,0.308 -1.138,0.246Zm2.275,-1.325c0.005,-0.029 0.129,-0.221 0.342,-0.304c0.204,-0.079 1.392,-0 1.967,0.012c0.57,0.013 0.666,0.038 0.595,0.163c-0.07,0.129 0.142,0.275 0,0.3c-0.141,0.021 -0.275,-0.184 -0.683,-0.159c-0.412,0.026 -1.037,0.155 -1.487,0.192c-0.45,0.042 -0.725,-0.112 -0.734,-0.204Zm-11.575,1.012c-0.041,0.005 -0.466,-0.216 -0.479,-0.383c-0.012,-0.166 0.309,-0.312 1.321,-0.146c1.013,0.163 1.612,0.346 3.45,0.479c1.833,0.13 2.913,0.196 3.508,0.234c0.596,0.037 0.817,0.129 0.817,0.129c0,0 -2.013,0.138 -3.233,0.367c-1.221,0.221 -3.121,0.47 -5.384,-0.68Zm8.521,-10.041c-0.004,-0 -0.008,0.004 -0.012,0.012c-0.021,0.063 -0.084,0.3 -0.088,0.555c-0.004,0.3 0.088,0.637 0.083,0.625c-0.004,-0.009 0.017,-1.192 0.017,-1.192Zm3.208,-6.884c-0.008,-0.05 0.051,-0.604 0.167,-0.758c0.113,-0.146 0.467,0.254 0.521,1.05c0.05,0.796 -0.158,2.867 -0.163,3.234c-0.004,0.366 -0.037,0.787 -0.27,0.999c-0.234,0.221 -0.504,0.213 -0.696,0.596c-0.192,0.38 -0.279,0.534 -0.346,0.359c-0.063,-0.175 0.075,-0.63 0.371,-0.896c0.3,-0.271 0.521,-0.338 0.479,-0.938c-0.042,-0.596 -0.067,-3.525 -0.063,-3.646Zm-6.745,0.563c-0.004,-0.025 0.037,-0.687 0.246,-1.133c0.204,-0.442 0.37,-0.488 0.345,0.071c-0.025,0.558 -0.179,2.674 -0.066,3.795c0.121,1.125 0.387,1.254 0.612,1.305c0.221,0.045 0.263,0.087 0.267,0.358c-0,0.271 0.021,0.783 -0.117,0.771c-0.137,-0.009 -0.867,-0.913 -1.112,-1.663c-0.242,-0.75 -0.175,-3.504 -0.175,-3.504Zm0.279,9.083c0.017,-0.008 0.246,0.004 0.512,-0.596c0.263,-0.6 0.442,-1.391 0.663,-2.395c0.225,-1.005 0.192,-1.659 0.183,-1.659c-0.012,0.005 0.288,-0.079 0.359,0.625c0.066,0.7 0.191,2.342 0.741,2.867c0.546,0.525 1.333,0.546 1.708,-0.204c0.376,-0.746 0.396,-0.513 0.55,-1.488c0.151,-0.975 0.221,-1.137 0.371,-1.479c0.146,-0.337 0.346,-0.346 0.321,-0.346c-0.025,0 -0.237,1.888 0.175,3.204c0.409,1.321 0.742,1.8 0.867,1.775c0.125,-0.02 0.241,-0.141 0.241,-0.141c0,-0 0.071,0.329 -0.358,1.133c-0.429,0.813 -0.542,1.108 -0.521,1.071c0.025,-0.037 0.609,-0.821 0.596,-0.829c-0.008,-0.008 -0.141,2.341 -0.137,3.3c0.004,0.95 0.016,1.25 -0.138,1.337c-0.154,0.088 -0.517,-0.05 -0.904,0.421c-0.387,0.463 -1.417,0.75 -2.671,0.613c-1.254,-0.138 -2.467,-0.784 -2.504,-1.188c-0.042,-0.4 0.121,-2.508 0.108,-2.504c-0.012,0.004 0.284,1.008 0.284,1.008c-0,0 -0.159,-1.558 -0.238,-2.316c-0.083,-0.763 -0.133,-1.875 -0.166,-1.842c-0.038,0.033 0.454,0.021 0.816,-0.708c0.363,-0.738 0.392,-2.288 0.367,-2.267c-0.021,0.017 -0.279,2.908 -1.225,2.608Zm3.816,-7.291c0.017,-0.021 0.08,-0.171 0.375,-0.229c0.296,-0.055 0.53,0.254 0.521,0.254c-0.004,0.004 -0.533,-0.271 -0.896,-0.025Zm0.176,0.3c0.016,0.008 0.045,0.046 0.266,0.029c0.225,-0.013 0.346,-0.054 0.342,-0.046c-0.004,0.008 -0.421,0.338 -0.608,0.017Zm-1.671,-0.059c-0,0 0.083,0 0.312,-0.004c0.234,-0.008 0.325,-0.046 0.317,-0.037c-0.009,0.004 -0.275,0.25 -0.629,0.041Zm0.929,0.229c-0.004,0.034 -0.2,0.671 -0.242,0.805c-0.042,0.129 0.029,0.146 0.179,0.212c0.146,0.067 0.167,0.188 0.267,0.138c0.104,-0.046 0.133,-0.138 0.279,-0.179c0.15,-0.046 0.138,-0.13 0.129,-0.18c-0.012,-0.054 -0.058,-0.091 -0.062,-0.087c-0.004,0.008 0.058,0.133 -0.083,0.179c-0.138,0.042 -0.163,0.096 -0.238,0.121c-0.075,0.025 -0.238,-0.088 -0.292,-0.163c-0.05,-0.083 0.125,-0.829 0.063,-0.846Zm-0.342,1.434c0.017,-0.025 0.125,-0.188 0.279,-0.208c0.154,-0.021 0.121,0.108 0.363,0.054c0.246,-0.05 0.45,0.208 0.454,0.221c0.008,0.02 -0.171,-0.109 -0.392,-0.092c-0.22,0.012 -0.341,-0.083 -0.379,-0.079c-0.033,0.004 -0.221,0.004 -0.325,0.104Zm0.271,0.191c0.029,0 0.321,0.009 0.471,-0.004c0.15,-0.008 0.171,0.05 0.112,0.096c-0.062,0.05 -0.383,0.113 -0.583,-0.092Zm-0.858,-2.175c-0,0 -0.125,0.046 -0.084,-0.058c0.046,-0.1 0.254,-0.187 0.488,-0.158c0.237,0.025 0.383,0.225 0.383,0.225c0,-0 -0.579,-0.271 -0.787,-0.009Zm-7.221,16.534c-0,-0 1.721,0.296 4.037,0.225c2.317,-0.071 4.129,-0.517 4.129,-0.517c0,0 1.992,0.5 4.921,0.679c2.93,0.18 3.459,-0.208 3.688,-0.279c0.233,-0.062 0.379,0.104 1.154,0.138c0.775,0.037 1.596,0.304 1.342,0.533c-0.259,0.237 -1.934,0.017 -2.371,0.283c-0.442,0.267 -0.333,0.446 -2.454,0.404c-2.121,-0.037 -3.425,0.084 -3.613,0.334c-0.191,0.25 0.742,0.45 1.063,0.733c0.32,0.292 -1.18,0.442 -2.45,0.404c-1.271,-0.037 -2.355,-0.004 -2.809,-0.616c-0.458,-0.609 -1.429,-0.584 -2.537,-0.709c-1.104,-0.12 -4.313,-0.383 -5.2,-0.441c-0.888,-0.054 -1.05,-0.584 -0.459,-0.825c0.588,-0.25 1.559,-0.346 1.559,-0.346Zm-0.596,-16.321l0.017,0c0.012,-0.258 0.187,-0.475 0.425,-0.554c-0.238,-0.279 -0.379,-0.642 -0.379,-1.042c-0,-0.879 0.716,-1.6 1.595,-1.6c0.209,0 0.405,0.038 0.584,0.108l-0,-0.008c-0,-0.446 0.362,-0.808 0.804,-0.808l0.021,-0c-0.279,-0.321 -0.446,-0.742 -0.446,-1.2c-0,-1.013 0.816,-1.833 1.825,-1.833c0.029,-0 0.054,-0 0.083,0.004c-0.104,-0.188 -0.162,-0.396 -0.162,-0.625c-0,-0.479 0.262,-0.9 0.654,-1.121l-0,-0.008c-0,-0.859 0.7,-1.559 1.558,-1.559c0.379,0 0.725,0.138 0.996,0.363c-0.329,0.658 -1.171,2.35 -1.667,3.191c-0.62,1.059 -1.341,2.617 -1.4,2.821c-0.029,0.104 -0.075,0.417 -0.108,0.688c-1.092,1.091 -1.762,2.587 -1.762,4.241c-0,1.892 0.883,3.579 2.262,4.688c0.083,0.291 0.229,0.804 0.283,0.962c0.075,0.23 0.238,0.33 0.238,0.33c-0.242,-0.721 -0.325,-1.696 -0.704,-2.275c-0.242,-0.367 -0.538,-1.134 -0.613,-1.709c-0.071,-0.575 0.133,-2.125 0.167,-2.812c0.033,-0.688 0.271,-3.538 0.287,-3.625c0.021,-0.317 0.071,-0.684 0.192,-0.884c0.246,-0.395 1.029,-1.754 1.375,-2.391c0.346,-0.642 1.5,-2.938 1.592,-3.096c0.012,-0.017 0.021,-0.042 0.025,-0.067c0.016,-0.041 0.033,-0.079 0.033,-0.083c-0,-0.021 0.013,-0.638 0.2,-1.308c0.187,-0.671 0.187,-0.609 0.283,-1.442c0.1,-0.834 0.179,-0.979 0.275,-0.967c0.088,0.017 0.105,0.079 0.105,0.079c-0,0 0.141,-0.141 0.204,-0.045c0.062,0.091 0.179,1.249 0.237,1.629c0.059,0.379 0.283,1.091 0.333,1.4c0.055,0.308 0.034,0.604 0.034,0.604l1.108,2.171c0.013,-0.013 0.021,-0.021 0.034,-0.029c0.224,0.354 1.362,2.133 1.795,2.695c0.484,0.629 0.73,1.059 0.759,1.438c0.016,0.167 0.037,0.35 0.058,0.512l-0.004,-0.004c0.012,0.159 0.037,0.417 0.029,0.475c-0.012,0.084 0.529,4.458 0.321,5.767c-0.209,1.308 -0.779,1.875 -0.779,1.875l-0.113,0.825c1.4,-1.113 2.292,-2.808 2.292,-4.713c-0,-1.558 -0.596,-2.979 -1.575,-4.05c-0.05,-0.321 -0.15,-1.004 -0.2,-1.145c-0.058,-0.163 -2.1,-3.167 -2.496,-3.755c0.358,-0.3 0.821,-0.483 1.329,-0.483c1.146,-0 2.071,0.929 2.071,2.079c-0,0.333 -0.075,0.646 -0.217,0.925c0.059,-0.004 0.117,-0.008 0.18,-0.008c0.816,-0 1.487,0.667 1.487,1.491c-0,0.334 -0.112,0.646 -0.304,0.896c0.4,0.175 0.675,0.571 0.675,1.034c-0,0.037 -0.004,0.079 -0.009,0.121c0.146,-0.042 0.3,-0.063 0.463,-0.063c0.887,0 1.617,0.688 1.675,1.563c0.329,0.191 0.554,0.55 0.554,0.958c0,0.579 -0.45,1.05 -1.017,1.096c0.005,0.058 0.009,0.112 0.009,0.175c-0,0.887 -0.688,1.616 -1.563,1.675c0.196,0.233 0.317,0.533 0.317,0.862c-0,0.392 -0.171,0.746 -0.433,0.992c0.441,0.083 0.779,0.475 0.779,0.937c-0,0.275 -0.117,0.517 -0.296,0.692l-4.1,-0c0.029,0.037 0.058,0.087 0.067,0.133c0.025,0.117 0.029,0.246 0.029,0.246l5.404,-0.108c-0,-0 0.154,-0.021 0.188,0.116c0.033,0.142 -0.13,0.225 -0.676,0.334c-0.545,0.108 -2.525,0.704 -2.487,0.783c0.038,0.071 1.867,0.625 2.183,0.717c0.321,0.092 0.371,0.346 0.084,0.396c-0.284,0.054 -2.704,0.529 -2.704,0.637c-0,0.113 4.162,0.892 5.162,1.142c0.996,0.246 1.046,0.517 0.304,0.617c-0.737,0.108 -4.467,0.199 -5.166,0.383c-0.705,0.187 -0.855,0.479 -0.855,0.479c0,0 0.434,-0.012 0.775,0.004c0.342,0.017 0.421,0.179 0.421,0.179c0,0 2.017,-0.058 2.671,0.113c0.658,0.175 1.283,0.616 1.513,0.858c0.237,0.238 0.137,0.771 -0.009,1.259c-0.15,0.491 -0.346,0.6 -1.325,0.774c-0.979,0.175 -0.837,0.263 -1.417,0.355c-0.575,0.083 -2.595,0.112 -4.458,-0.05c-1.45,-0.13 -2.629,-0.384 -3.087,-0.492c0.358,-0.083 1.191,-0.279 1.225,-0.279c0.041,-0 0.875,0.075 2.862,0.066c1.983,-0.008 2.963,-0.712 3.267,-1.033c0.304,-0.321 0.475,-0.437 0.875,-0.517c0.404,-0.074 0.537,-0.208 0.604,-0.308c0.071,-0.1 -0.308,-0.421 -0.904,-0.442c-0.596,-0.025 -1.867,-0.037 -1.859,-0.037c0.009,0 -0.012,0.113 -0.012,0.113c-0,-0 0.017,-0.021 0.563,0.012c0.55,0.029 0.716,0.433 0.716,0.433c0,0 0.042,-0.004 0.292,0.005c0.246,0.004 0.541,0.037 0.541,0.037c0,-0 -0.22,0.042 -0.616,0.137c-0.4,0.096 -1.804,0.48 -3.9,0.9c-2.096,0.43 -3.871,0.838 -3.858,0.863c-0,0 -2.896,0.746 -6.175,0.504c-3.28,-0.242 -3.392,-1.246 -3.58,-1.621c-0.191,-0.371 -0.395,-1.046 -0.046,-1.387c0.346,-0.338 1.113,-0.817 2.58,-0.771c1.462,0.046 1.495,0.154 1.495,0.154c0,0 -0.016,-0.154 0.117,-0.15c0.134,0 0.671,-0.008 0.671,-0.008c-0,-0 -0.029,-0.175 -0.333,-0.229c-0.3,-0.063 -4.53,-0.45 -4.992,-0.488c-0.471,-0.033 -0.937,-0.121 -0.842,-0.271c0.1,-0.146 1.992,-0.375 3.109,-0.558c1.116,-0.183 1.983,-0.329 1.987,-0.404c0.004,-0.067 -2.579,-0.425 -2.716,-0.625c-0.142,-0.2 0.058,-0.309 0.77,-0.459c0.713,-0.15 2.309,-0.4 2.321,-0.533c0.017,-0.133 -2.917,-1.308 -3.208,-1.762l5.233,0.008c0,-0 0.15,-0.046 0.271,-0.225l-4.075,-0c-0.267,-0.171 -0.446,-0.471 -0.446,-0.813c0,-0.433 0.279,-0.8 0.671,-0.924c-0.075,-0.142 -0.117,-0.309 -0.117,-0.48c0,-0.15 0.029,-0.287 0.088,-0.416c-0.133,0.058 -0.279,0.091 -0.434,0.091c-0.587,0 -1.062,-0.471 -1.062,-1.062c-0,-0.083 0.012,-0.163 0.029,-0.242l-0.004,0c-0.883,0 -1.6,-0.716 -1.6,-1.596c0,-0.887 0.717,-1.608 1.6,-1.608Z" style="fill:url(#_Radial1);"/></g><defs><radialGradient id="_Radial1" cx="0" cy="0" r="1" gradientUnits="userSpaceOnUse" gradientTransform="matrix(12.5875,4.16667,-4.16667,12.5875,21.9605,16.0175)"><stop offset="0" style="stop-color:#faa819;stop-opacity:1"/><stop offset="0.1" style="stop-color:#ee3f23;stop-opacity:1"/><stop offset="0.2" style="stop-color:#e81d25;stop-opacity:1"/><stop offset="0.3" style="stop-color:#e21e26;stop-opacity:1"/><stop offset="0.4" style="stop-color:#a91e22;stop-opacity:1"/><stop offset="0.5" style="stop-color:#7d1315;stop-opacity:1"/><stop offset="0.6" style="stop-color:#591618;stop-opacity:1"/><stop offset="0.8" style="stop-color:#2e1d1e;stop-opacity:1"/><stop offset="1" style="stop-color:#221e1f;stop-opacity:1"/></radialGradient></defs></svg>